HIERARCHY
ROOT Hips
{
	OFFSET 0.0000 0.0000 0.0000
	CHANNELS 6 Xposition Yposition Zposition Zrotation Xrotation Yrotation
	JOINT Ab
	{
		OFFSET -0.0000 8.0846 -0.0000
		CHANNELS 3 Zrotation Xrotation Yrotation
		JOINT Chest
		{
			OFFSET -0.0000 25.0068 -0.0000
			CHANNELS 3 Zrotation Xrotation Yrotation
			JOINT Neck
			{
				OFFSET -0.0000 25.0068 0.0000
				CHANNELS 3 Zrotation Xrotation Yrotation
				JOINT Head
				{
					OFFSET -0.0000 10.7556 0.0000
					CHANNELS 3 Zrotation Xrotation Yrotation
					End Site
					{
						OFFSET -0.0000 16.6222 0.0000
					}
				}
			}
			JOINT LeftCollar
			{
				OFFSET -0.0000 25.0068 0.0000
				CHANNELS 3 Zrotation Xrotation Yrotation
				JOINT LeftShoulder
				{
					OFFSET 19.5556 -0.0000 0.0000
					CHANNELS 3 Zrotation Xrotation Yrotation
					JOINT LeftElbow
					{
						OFFSET 27.1828 0.0000 0.0000
						CHANNELS 3 Zrotation Xrotation Yrotation
						JOINT LeftWrist
						{
							OFFSET 23.3157 0.0000 0.0000
							CHANNELS 3 Zrotation Xrotation Yrotation
							End Site
							{
								OFFSET 0.0000 -14.6667 0.0000
							}
						}
					}
				}
			}
			JOINT RightCollar
			{
				OFFSET -0.0000 25.0068 0.0000
				CHANNELS 3 Zrotation Xrotation Yrotation
				JOINT RightShoulder
				{
					OFFSET -19.5556 0.0000 0.0000
					CHANNELS 3 Zrotation Xrotation Yrotation
					JOINT RightElbow
					{
						OFFSET -27.1828 0.0000 0.0000
						CHANNELS 3 Zrotation Xrotation Yrotation
						JOINT RightWrist
						{
							OFFSET -23.3157 0.0000 0.0000
							CHANNELS 3 Zrotation Xrotation Yrotation
							End Site
							{
								OFFSET -0.0000 -14.6667 0.0000
							}
						}
					}
				}
			}
		}
	}
	JOINT LeftHip
	{
		OFFSET 11.7333 0.0000 0.0000
		CHANNELS 3 Zrotation Xrotation Yrotation
		JOINT LeftKnee
		{
			OFFSET -0.0000 -40.8688 0.0000
			CHANNELS 3 Zrotation Xrotation Yrotation
			JOINT LeftAnkle
			{
				OFFSET -0.0000 -44.4337 0.0000
				CHANNELS 3 Zrotation Xrotation Yrotation
				End Site
				{
					OFFSET -0.0000 -4.8889 16.6222
				}
			}
		}
	}
	JOINT RightHip
	{
		OFFSET -11.7333 0.0000 0.0000
		CHANNELS 3 Zrotation Xrotation Yrotation
		JOINT RightKnee
		{
			OFFSET -0.0000 -40.8688 0.0000
			CHANNELS 3 Zrotation Xrotation Yrotation
			JOINT RightAnkle
			{
				OFFSET -0.0000 -44.4337 0.0000
				CHANNELS 3 Zrotation Xrotation Yrotation
				End Site
				{
					OFFSET -0.0000 -4.8889 16.6222
				}
			}
		}
	}
}
MOTION
Frames: 13
Frame Time: 0.010000
-3.2017 88.5224 189.5547 2.1904 0.4267 175.7678 1.4561 359.3782 358.1545 359.3539 10.6428 358.2087 0.3821 342.3242 1.1333 3.1749 8.2018 0.8397 338.5040 358.4927 7.8727 300.4806 29.4334 356.9648 14.3682 355.0227 322.1552 84.8193 0.8616 339.9719 22.2103 358.8245 353.9707 60.8932 45.7281 5.3958 337.4219 354.1185 28.8101 274.8063 353.1443 16.7311 3.1782 359.6147 356.6239 359.1296 10.0456 357.3052 355.2866 350.9138 22.3122 359.7383 353.0137 0.5851 358.7715 19.9334 8.8122 358.6184 343.5555 337.2188 
-3.2072 88.5252 189.5343 2.1870 0.4447 175.7718 1.4346 359.4139 358.1520 359.3643 10.6323 358.2048 0.3013 342.2866 1.0929 3.2420 8.2809 0.8051 338.4937 358.5157 7.9047 300.4938 29.3907 356.9585 14.3391 355.0677 322.1873 84.7397 0.8234 339.9449 22.2218 358.8296 353.9964 60.8575 45.7403 5.4159 337.4856 354.1506 28.8949 274.7187 353.3756 17.0871 3.1721 359.6691 356.4081 359.0890 10.0000 357.4734 354.9532 350.8488 22.2829 359.7274 353.0577 0.5962 358.7782 19.9120 8.7892 358.5504 343.5817 337.2358 
-3.2150 88.5269 189.5272 2.1823 0.4072 175.7815 1.4132 359.3975 358.1441 359.3876 10.6323 358.1947 0.1739 342.1971 1.0172 3.3060 8.4242 0.7382 338.4958 358.4946 7.8947 300.4564 29.3167 356.9928 14.3398 355.0433 322.1450 84.7673 0.8207 339.9075 22.2169 358.8058 354.0243 60.8437 45.7698 5.4251 337.4042 354.1166 28.8604 274.7982 353.2696 16.9287 3.1699 359.6111 356.3613 359.0687 10.0494 357.5003 355.3344 350.8779 22.3485 359.7133 353.0294 0.6104 358.7914 19.9080 8.7549 358.5911 343.5404 337.2546 
-3.2247 88.5282 189.5117 2.1719 0.3953 175.7872 1.3835 359.4000 358.1442 359.3984 10.6432 358.1940 0.0793 342.1152 0.9570 3.3663 8.5444 0.6864 338.5029 358.5162 7.9127 300.4487 29.2487 356.9919 14.3015 355.0917 322.1430 84.7489 0.8254 339.8728 22.2174 358.8260 354.0482 60.7987 45.7544 5.4671 337.5326 354.1510 28.9227 274.6522 353.4117 17.1934 3.1589 359.5889 356.3298 359.0471 10.0897 357.4945 354.9704 350.7795 22.3160 359.6894 353.0342 0.6297 358.8043 19.9038 8.7808 358.5918 343.5154 337.2226 
-3.2347 88.5294 189.5029 2.1652 0.3679 175.8136 1.3453 359.4047 358.1449 359.4214 10.6295 358.1920 359.9157 342.0275 0.8425 3.5128 8.6973 0.5777 338.5133 358.5062 7.8919 300.4173 29.1547 357.0287 14.2907 355.0695 322.0791 84.6656 0.8827 339.7394 22.2131 358.8185 354.0518 60.7746 45.7858 5.5062 337.5000 354.1349 28.9346 274.6153 353.4851 17.2361 3.1523 359.5219 356.2991 359.0222 10.1617 357.5092 355.3701 350.7808 22.3865 359.6659 353.0249 0.6230 358.8221 19.8862 8.7433 358.5929 343.5015 337.2524 
-3.2514 88.5306 189.4905 2.1456 0.3423 175.8269 1.3142 359.4066 358.1533 359.4130 10.6214 358.2023 359.8362 341.9653 0.7738 3.5890 8.8014 0.5161 338.5273 358.4917 7.8802 300.3927 29.0906 357.0679 14.2782 355.0806 322.0464 84.6304 0.8848 339.7042 22.2228 358.8390 354.0532 60.7165 45.8135 5.5724 337.5180 354.1309 28.9113 274.6863 353.4065 17.2358 3.1271 359.4744 356.2994 359.0196 10.2139 357.4241 355.0634 350.6753 22.3699 359.6231 353.0147 0.6082 358.8364 19.8728 8.7486 358.5407 343.5030 337.2617 
-3.2692 88.5319 189.4785 2.1233 0.3137 175.8444 1.2672 359.4225 358.1653 359.4261 10.5799 358.2132 359.6632 341.9030 0.6563 3.7261 8.9410 0.4079 338.5216 358.5026 7.8430 300.3668 28.9708 357.1344 14.1991 355.1040 322.0239 84.6148 0.8960 339.5784 22.2268 358.8208 354.0444 60.6804 45.8896 5.6071 337.4567 354.1111 28.9139 274.6314 353.5101 17.2059 3.1061 359.3961 356.2484 358.9842 10.3215 357.3931 355.4271 350.6752 22.4864 359.5700 353.0088 0.6332 358.8811 19.8535 8.7122 358.7311 343.4403 337.3059 
-3.2909 88.5349 189.4682 2.1018 0.2868 175.8670 1.2314 359.4430 358.1629 359.4324 10.5488 358.2098 359.4585 341.8212 0.5352 3.9262 9.0868 0.2951 338.5239 358.5068 7.8211 300.3367 28.8670 357.1643 14.1241 355.1118 322.0214 84.7422 0.8458 339.5296 22.2334 358.8251 354.0455 60.6157 45.8847 5.6593 337.4958 354.1203 28.9174 274.6981 353.4754 17.2488 3.0860 359.3143 356.2839 358.9532 10.4239 357.3295 355.1361 350.5594 22.4472 359.5192 353.0059 0.6456 358.9110 19.8319 8.6864 358.7871 343.3997 337.3199 
-3.3163 88.5381 189.4583 2.0792 0.2502 175.9051 1.2137 359.4686 358.1438 359.4080 10.4917 358.1928 359.2653 341.7348 0.4188 4.1169 9.2574 0.1865 338.5395 358.5247 7.7866 300.2881 28.6331 357.2294 13.9914 355.1731 321.9777 84.8156 0.8086 339.3538 22.2555 358.8486 354.0475 60.5168 45.8829 5.7400 337.5625 354.1254 28.9245 274.7560 353.4511 17.3056 3.0600 359.2076 356.2718 358.9216 10.5494 357.2717 355.5419 350.5704 22.5633 359.4622 353.0032 0.6656 358.9465 19.7995 8.6282 359.0415 343.2296 337.2732 
-3.3508 88.5402 189.4441 2.0450 0.2167 175.9459 1.2030 359.4959 358.1183 359.3584 10.4274 358.1714 359.0055 341.7080 0.2606 4.3940 9.3318 0.0646 338.5574 358.5205 7.7582 300.2279 28.4119 357.3248 13.9004 355.2082 321.8890 84.8715 0.8291 339.2221 22.2760 358.8363 354.0802 60.4636 45.9364 5.7647 337.5259 354.1053 28.9596 274.7880 353.5243 17.3291 3.0119 359.1130 356.2433 358.9059 10.6677 357.1807 355.2138 350.4193 22.5576 359.3835 353.0027 0.6681 358.9853 19.7735 8.5735 358.9605 343.2453 337.3442 
-3.3882 88.5436 189.4349 2.0099 0.1633 175.9922 1.1841 359.5095 358.0901 359.3307 10.3692 358.1465 358.7028 341.5890 0.1117 4.6952 9.5336 359.9161 338.5637 358.5273 7.7567 300.1825 28.2842 357.3846 13.8450 355.2116 321.8380 84.8928 0.8585 339.1647 22.2841 358.8506 354.1263 60.4026 45.9526 5.7967 337.5632 354.1148 28.9681 274.8545 353.4666 17.3840 2.9642 358.9793 356.2125 358.8787 10.8087 357.1292 355.5779 350.3959 22.6591 359.3035 352.9819 0.6862 359.0344 19.7362 8.4868 358.9163 343.2497 337.4083 
-3.4305 88.5465 189.4273 1.9751 0.0991 176.0462 1.1477 359.5098 358.0728 359.3256 10.3225 358.1302 358.3779 341.3874 359.9374 4.9832 9.8763 359.7513 338.5555 358.5280 7.8231 300.1787 28.4537 357.3436 13.9478 355.1532 321.9393 84.8869 0.7633 339.2765 22.2787 358.8461 354.1482 60.2934 46.0186 5.8809 337.5450 354.1212 28.9827 274.9407 353.3903 17.3867 2.9173 358.8316 356.1754 358.8449 10.9527 357.0605 355.2830 350.2553 22.6521 359.2244 352.9570 0.7021 359.0752 19.6896 8.4052 359.1833 343.0569 337.3466 
-3.4799 88.5494 189.4132 1.9401 0.0392 176.0989 1.0897 359.5009 358.0880 359.3331 10.3053 358.1442 358.0367 341.1142 359.7151 5.2789 10.3141 359.5479 338.5485 358.5146 7.8041 300.1474 28.3711 357.3748 13.9299 355.1703 321.9378 84.9505 0.7029 339.2493 22.2719 358.8270 354.1191 60.1328 46.0888 6.0198 337.5984 354.1291 29.0675 274.6852 353.7648 17.4531 2.8631 358.6769 356.2901 358.8445 11.1313 356.8255 355.6502 350.2133 22.7712 359.1407 352.9476 0.7453 359.1090 19.5982 8.4446 359.1981 343.0249 337.2372 
